<svg width="285" height="138" viewBox="0 0 285 138" fill="none" xmlns="http://www.w3.org/2000/svg">
<path fill-rule="evenodd" clip-rule="evenodd" d="M151.239 19.9053C151.024 20.9114 150.097 21.6047 149.073 21.6047H147.431V18.0532H149.637C150.13 18.0532 150.585 18.2208 150.947 18.5013C151.079 18.6038 151.174 18.7479 151.217 18.91C151.299 19.2196 151.314 19.5562 151.239 19.9053ZM149.142 16.6852H146.317V22.2264H149.145C150.668 22.2264 151.907 20.9817 151.907 19.452C151.907 17.9264 150.667 16.6852 149.142 16.6852ZM149.145 24.5443V24.855H149.142V24.5443H144.01V7.48025L148.73 7.47956C151.263 7.47956 153.324 9.55023 153.324 12.095C153.324 13.1648 152.947 14.2104 152.264 15.0388L152.063 15.2822L152.308 15.48C153.519 16.4556 154.214 17.9032 154.214 19.452C154.214 22.2596 151.94 24.5443 149.145 24.5443ZM154.374 17.036C154.359 17.0132 153.938 16.3794 153.923 16.3569C153.799 16.165 153.663 15.9804 153.515 15.8031C154.111 14.9321 154.438 13.8983 154.438 12.8413C154.438 11.7553 154.107 10.7454 153.541 9.90763C153.522 9.87785 153.096 9.23819 153.076 9.20875C152.141 7.79367 150.543 6.85756 148.73 6.85756L143.391 6.85825V25.166L143.886 25.9123H149.637V25.8434C149.638 25.8434 149.639 25.8434 149.64 25.8434V25.9123C152.776 25.9123 155.328 23.3488 155.328 20.1983C155.328 19.0554 154.99 17.9624 154.374 17.036ZM147.431 13.7456V11.1658L149.225 11.1655C149.505 11.1655 149.77 11.2358 150.001 11.3594C150.217 11.4744 150.367 11.6909 150.39 11.9347C150.395 11.9873 150.398 12.041 150.398 12.095C150.398 12.9116 149.796 13.6171 148.995 13.7456H147.431ZM149.064 14.3641C150.177 14.2007 151.017 13.2251 151.017 12.095C151.017 11.482 150.779 10.9054 150.347 10.4711C149.914 10.0368 149.34 9.7975 148.731 9.7975H148.73H146.317V14.3676H149.041L149.064 14.3641ZM140.776 20.2516C140.444 23.0454 137.995 25.0697 135.206 24.8605H135.206C135.129 24.8546 135.052 24.847 134.974 24.8377C133.233 24.6292 131.707 23.5441 130.925 21.9791L132.95 21.1046C133.419 21.949 134.27 22.5298 135.235 22.6451C136.037 22.741 136.828 22.5173 137.462 22.0165C138.096 21.515 138.498 20.7954 138.594 19.9898C138.799 18.2641 137.7 16.8746 135.921 16.6104C133.248 16.2132 131.469 13.9264 131.783 11.2908C131.933 10.023 132.569 8.88805 133.572 8.09567C134.575 7.30328 135.821 6.95037 137.081 7.1031C138.379 7.2586 139.552 7.94744 140.344 9.00788L138.501 10.2249C138.072 9.7078 137.475 9.37395 136.821 9.29533C136.14 9.2136 135.467 9.40408 134.928 9.83075C134.388 10.2574 134.046 10.869 133.965 11.5527C133.791 13.0194 134.727 14.2007 136.242 14.4258C139.17 14.8608 141.12 17.3654 140.776 20.2516ZM141 17.1732C140.986 17.1503 140.565 16.5176 140.55 16.4951C139.665 15.0911 138.172 14.084 136.332 13.8107C136.027 13.7653 135.754 13.6725 135.519 13.5406C135.27 13.401 135.102 13.1489 135.071 12.8642C135.054 12.7122 135.055 12.5532 135.073 12.389C135.116 12.0084 135.265 11.6403 135.513 11.3487C135.954 10.8289 136.594 10.5819 137.243 10.6592C137.801 10.7263 138.307 11.0432 138.639 11.5291L138.833 11.8225L141.705 9.92703L141.04 8.92096C140.151 7.56267 138.735 6.67505 137.155 6.48526C135.732 6.31452 134.322 6.7121 133.189 7.60666C132.056 8.5019 131.338 9.78434 131.168 11.2171C131.01 12.5428 131.322 13.7885 131.98 14.8043C131.994 14.8261 132.414 15.4575 132.429 15.48C133.243 16.7832 134.623 17.719 136.325 17.9718C136.84 18.0483 137.284 18.2412 137.633 18.5207C137.767 18.6277 137.864 18.7742 137.91 18.9394C138.001 19.2663 138.025 19.6248 137.968 20.0026C137.907 20.4082 137.745 20.7978 137.49 21.1178C136.948 21.7987 136.133 22.1259 135.308 22.0276C134.753 21.9614 134.2 21.7405 133.869 21.3058C133.487 20.8064 133.26 20.2942 133.26 20.2942L130.104 21.657L130.226 21.9424C130.382 22.3081 130.574 22.653 130.796 22.9734C130.812 22.9962 131.232 23.6307 131.247 23.6525C132.187 25.0503 133.699 25.9982 135.396 26.2015C135.482 26.2119 135.569 26.2202 135.656 26.2268H135.655C135.804 26.2378 135.952 26.2434 136.099 26.2434C139.033 26.243 141.533 24.0477 141.886 21.0714C142.057 19.6307 141.718 18.2755 141 17.1732ZM142.499 0.746328C128.157 0.746328 116.488 7.80233 116.488 16.4757C116.488 25.1483 128.157 32.2043 142.499 32.2043C156.842 32.2043 168.511 25.1483 168.511 16.4757C168.511 7.80233 156.842 0.746328 142.499 0.746328ZM142.499 32.9506C127.747 32.9506 115.745 25.5601 115.745 16.4757C115.745 7.3909 127.747 0 142.499 0C157.252 0 169.253 7.3909 169.253 16.4757C169.253 25.5601 157.252 32.9506 142.499 32.9506ZM206.804 133.161L201.27 126.333H203.982L207.91 131.157L211.823 126.333H214.551L209.017 133.161V137.718H206.804V133.161ZM191.528 126.333H193.742V135.745H201.956V137.718H191.528V126.333ZM177.219 126.333H187.647V128.244H179.432V130.89H186.493V132.801H179.432V137.718H177.219V126.333ZM158.296 128.244H153.23V126.333H165.575V128.244H160.509V137.718H158.296V128.244ZM147.042 137.718H149.256V126.333H147.042V137.718ZM122.196 126.333H124.409V130.843H132.016V126.333H134.229V137.718H132.016V132.817H124.409V137.718H122.196V126.333ZM118.065 133.662C117.847 134.931 116.943 138 111.737 138C108.152 138 105.331 135.995 105.331 131.845C105.331 128.526 107.404 126.051 111.908 126.051C116.974 126.051 117.723 129.356 117.894 129.966H115.681C115.556 129.575 114.683 127.962 112.033 127.962C108.9 127.962 107.591 129.732 107.591 132.096C107.591 134.712 109.477 136.09 111.908 136.09C114.496 136.09 115.634 134.539 115.852 133.662H118.065ZM95.0433 128.244H89.9772V126.333H102.323V128.244H97.2566V137.718H95.0433V128.244ZM84.9738 133.192L82.6047 128.118L80.2352 133.192H84.9738ZM81.342 126.333H83.867L89.3695 137.718H87.0314L85.8466 135.103H79.3156L78.1156 137.718H75.7617L81.342 126.333ZM58.4597 126.333H60.673L62.8553 134.163H62.8864L65.0528 126.333H67.1727L69.3706 134.148H69.4016L71.5684 126.333H73.7348L70.4305 137.718H68.3106L66.1597 129.637H66.1286L63.9618 137.718H61.7954L58.4597 126.333ZM260.044 99.8704H253.203V57.0188L260.044 57.0184C271.804 57.0184 281.37 66.6303 281.37 78.4444C281.37 90.2586 271.804 99.8704 260.044 99.8704ZM284.948 79.7701C284.585 74.3509 282.286 69.315 278.38 65.4549L275.808 62.8706C271.609 58.5807 266.011 56.2184 260.044 56.2187H252.43C252.417 56.2187 252.407 56.2288 252.407 56.2413V100.661C252.407 100.667 252.41 100.673 252.414 100.677L255.233 103.509C255.237 103.514 255.243 103.516 255.249 103.516H262.539C275.556 103.516 285.822 92.8193 284.948 79.7701ZM186.966 99.8704V100.244H186.959V99.8704H173.916V57.0188H185.942L186.082 57.0181C192.479 57.0939 197.659 62.3449 197.659 68.7886C197.659 71.5166 196.699 74.1833 194.955 76.2969L194.714 76.5888L195.009 76.826C198.087 79.3054 199.852 82.9865 199.852 86.9242C199.852 94.0629 194.072 99.8704 186.966 99.8704ZM199.331 79.9329C199.245 79.8446 198.858 79.4557 198.763 79.365C198.761 79.3345 198.759 79.3095 198.757 79.285C198.755 79.2604 198.753 79.2358 198.751 79.2053C200.39 77.0252 201.287 74.3557 201.287 71.6343C201.287 68.2133 199.936 65.0112 197.491 62.6271C197.403 62.5367 197.315 62.4474 197.234 62.3688C197.146 62.278 197.057 62.189 196.977 62.1104C196.889 62.0197 196.8 61.9307 196.719 61.8517C196.631 61.761 196.542 61.672 196.461 61.593C196.374 61.5023 196.285 61.4133 196.204 61.3343C196.116 61.2432 196.027 61.1542 195.946 61.0756C195.859 60.9849 195.77 60.8952 195.689 60.8169C195.602 60.7262 195.512 60.6368 195.431 60.5582C195.344 60.4674 195.255 60.3781 195.174 60.2995C195.086 60.2087 194.997 60.1194 194.916 60.0404C192.535 57.5753 189.348 56.2177 185.942 56.2177L173.135 56.2187C173.126 56.2187 173.119 56.226 173.119 56.2347V100.664C173.119 100.668 173.121 100.672 173.124 100.675L175.947 103.511C175.95 103.514 175.954 103.516 175.958 103.516H189.57C197.335 103.516 203.715 97.1314 203.474 89.3346C203.364 85.7709 201.903 82.4465 199.331 79.9329ZM237.574 68.0267C237.644 68.3422 237.68 68.6618 237.68 68.9822C237.68 71.3434 235.439 73.3386 234.268 73.3905H231.3V67.3572H236.061L236.138 67.3569C236.432 67.3624 236.725 67.3977 237.015 67.4632C237.293 67.5255 237.512 67.7479 237.574 68.0267ZM233.229 63.7108L227.672 63.7118V74.1905H233.875V74.1978L234.252 74.1916C235.095 74.177 236.149 73.5671 237.003 72.5999C237.553 71.9765 238.476 70.6774 238.476 68.9822C238.476 66.0755 236.122 63.7108 233.229 63.7108ZM246.277 99.8704H239.808C239.737 88.5775 236.491 82.1608 234.436 80.7599L234.342 80.6955L227.672 80.6907V100.064H221.202V57.2117H233.229L233.353 57.2113C239.756 57.2785 244.945 62.5329 244.945 68.9822C244.945 72.2137 243.466 75.5201 240.989 77.8269L240.748 78.0507L240.939 78.318C244.286 83.0107 246.226 90.8501 246.277 99.8704ZM248.574 71.8276C248.574 68.4062 247.222 65.2041 244.777 62.8207C244.69 62.73 244.601 62.6406 244.52 62.5624C244.433 62.4713 244.344 62.3819 244.263 62.3033C244.175 62.2129 244.086 62.1239 244.005 62.0446C243.918 61.9542 243.829 61.8649 243.748 61.7856C243.66 61.6952 243.571 61.6058 243.49 61.5272C243.403 61.4365 243.314 61.3471 243.233 61.2685C243.145 61.1778 243.056 61.0884 242.975 61.0098C242.888 60.9191 242.799 60.83 242.718 60.7518C242.631 60.661 242.542 60.572 242.46 60.4924C242.373 60.4016 242.284 60.3126 242.203 60.234C239.821 57.7685 236.635 56.4106 233.229 56.4106L220.406 56.4116V100.864L223.238 103.709H231.3V84.3361H235.629C235.917 84.3361 236.178 84.5051 236.296 84.7693C237.305 87.027 239.012 92.0563 239.012 100.244V100.67L241.845 103.516H249.907V103.089C249.907 93.94 247.987 85.9222 244.631 81.0017C247.106 78.5608 248.574 75.1589 248.574 71.8276ZM272.332 71.5824C273.496 73.6721 274.104 76.0108 274.104 78.4444C274.104 84.9761 269.606 90.6658 263.33 92.1793C263.316 92.1827 263.302 92.1717 263.302 92.1568V67.1941C263.302 67.1813 263.313 67.1709 263.325 67.1712C265.599 67.2422 267.78 67.8545 269.74 68.9638C270.825 69.5789 271.723 70.4901 272.332 71.5824ZM260.044 63.5186H259.673V93.3703H260.044C268.236 93.3703 274.901 86.6745 274.901 78.4444C274.901 70.2147 268.236 63.5189 260.044 63.5186ZM206.777 99.8708H213.247V57.0184H206.777V99.8708ZM205.981 56.2187V100.67L208.813 103.516H216.875V59.0641L214.043 56.2187H205.981ZM192.225 84.9546C192.465 85.588 192.587 86.2488 192.587 86.9245C192.587 90.0373 190.065 92.5703 186.959 92.5703H184.029C184.021 92.5703 184.014 92.563 184.014 92.5544V84.1588C184.014 84.1498 184.021 84.1428 184.029 84.1428H189.791C190.476 84.1428 191.146 84.2675 191.787 84.5141C191.99 84.592 192.149 84.7513 192.225 84.9546ZM186.959 80.4974H180.385V93.3703H186.966C190.504 93.3703 193.383 90.4788 193.383 86.9242C193.383 83.3806 190.501 80.4974 186.959 80.4974ZM186.622 73.1969H184.029C184.021 73.1969 184.014 73.19 184.014 73.181V67.1802C184.014 67.1716 184.021 67.1643 184.029 67.1643L188.869 67.164C189.154 67.1705 189.437 67.2052 189.718 67.2675C190.002 67.3312 190.227 67.5595 190.29 67.8455C190.358 68.1569 190.393 68.4724 190.393 68.7889C190.393 70.9756 188.775 72.8651 186.625 73.1969C186.624 73.1969 186.623 73.1969 186.622 73.1969ZM186.709 73.9931C189.263 73.6184 191.189 71.3808 191.189 68.7886C191.189 65.8826 188.836 63.5179 185.943 63.5175L180.385 63.5189V73.9969H186.682L186.709 73.9931ZM68.9903 99.8704H48.1755V57.0188H54.6452V93.3703H68.9903V99.8704ZM58.2736 92.5703V59.0641L55.4415 56.2187H47.3793V100.67L50.2117 103.516H72.6187V95.4157L69.7866 92.5703H58.2736ZM118.504 63.5189H104.159V74.0025H112.891V80.5026H104.159V93.3703H118.504V99.8704H97.6888V57.0188H118.504V63.5189ZM96.8926 56.2187V100.67L99.7246 103.516H122.132V95.4157L119.3 92.5703H107.787V84.148H116.519V76.0482L113.687 73.2028H107.787V67.1643H122.132V59.0641L119.3 56.2187H96.8926ZM32.908 99.8708H39.3777V57.0184H32.908V99.8708ZM32.1117 56.2187V100.67L34.9438 103.516H43.006V59.0641L40.174 56.2187H32.1117ZM78.5951 100.72L65.605 57.0184H72.2888L78.5937 80.6491L84.8956 57.0184H91.5794L78.5951 100.72ZM84.2848 56.2187L79.6296 73.6735L75.732 59.0641L72.8993 56.2187H64.5361L78.5955 103.517L81.4275 106.361L95.48 59.0641L92.6476 56.2187H84.2848ZM26.0646 88.8757C25.2277 95.9199 19.0596 101.021 12.0215 100.496C11.8267 100.481 11.632 100.462 11.4365 100.438C6.91024 99.8954 2.96375 97.0056 1.05031 92.8612L6.70514 90.42C7.75097 92.5457 9.81125 94.0203 12.1659 94.3026C14.027 94.5239 15.8618 94.0058 17.3316 92.8442C18.8031 91.6813 19.7359 90.0116 19.9579 88.1432C20.4336 84.1414 17.8776 80.9168 13.7422 80.3028C6.99124 79.2998 2.49736 73.519 3.28914 66.8557C3.67039 63.6505 5.2767 60.7812 7.81232 58.7781C10.3473 56.7749 13.4982 55.8845 16.6843 56.2686C20.1003 56.6783 23.174 58.5474 25.1732 61.4164L20.0292 64.8128C19.0334 63.4687 17.5677 62.5973 15.9556 62.4041C14.392 62.216 12.8474 62.6531 11.6075 63.6332C10.3679 64.6133 9.58237 66.018 9.39588 67.5886C8.99568 70.9576 11.1528 73.6721 14.6416 74.1902C22.0185 75.2856 26.9295 81.5991 26.0646 88.8757ZM23.0026 77.5069C20.8193 75.296 17.9683 73.8757 14.7581 73.3992C14.3744 73.342 14.0039 73.2537 13.6502 73.1349C13.4175 73.0567 13.2393 72.8686 13.1717 72.6317C12.9832 71.9692 12.9315 71.2641 13.0187 70.5288C13.18 69.1706 13.8594 67.9553 14.9318 67.1072C16.0049 66.2594 17.3406 65.8822 18.6932 66.0436C19.0886 66.0911 19.4798 66.1884 19.8565 66.3314C20.4153 66.5434 20.9096 66.898 21.3174 67.3364L22.6421 68.7602L29.1128 64.4879L28.8795 64.1316C28.3393 63.3052 27.703 62.5367 26.9843 61.8417C26.9009 61.7561 26.8171 61.6709 26.7396 61.5961L26.7154 61.5715C26.6355 61.4898 26.5558 61.4084 26.4693 61.3243C26.3859 61.2391 26.3025 61.1535 26.2187 61.0728C26.1329 60.9845 26.047 60.8969 25.9678 60.8204C25.8799 60.7307 25.792 60.6406 25.7099 60.5616L25.6782 60.5291C25.6007 60.4498 25.5231 60.3708 25.4524 60.3029L25.4283 60.2784C25.3483 60.1966 25.2687 60.1152 25.1832 60.0321C25.0991 59.9459 25.015 59.86 24.9375 59.7855L24.9133 59.7609C24.8334 59.6792 24.7537 59.5975 24.6803 59.5268C24.5921 59.4368 24.5045 59.3471 24.4228 59.2685C22.3677 57.1666 19.6532 55.8191 16.7791 55.4742C13.382 55.0631 10.0226 56.0141 7.32009 58.1492C4.61728 60.2846 2.9048 63.3433 2.49874 66.7612C2.01271 70.8492 3.39428 74.7859 6.28047 77.5526L8.85505 80.1393C10.8653 82.1851 13.4944 83.4994 16.4578 83.9399C17.1506 84.0427 17.8042 84.2287 18.4071 84.4944C18.5843 84.5726 18.717 84.7253 18.7883 84.9061C19.1682 85.8648 19.2988 86.9415 19.1675 88.0487C18.9703 89.7045 18.1437 91.1843 16.8394 92.2156C15.5364 93.2453 13.9094 93.7045 12.26 93.5085C11.5634 93.4247 10.8995 93.1944 10.2476 92.9014C8.6072 92.1647 7.11258 89.3734 7.11258 89.3734L0 92.4442L0.167525 92.8363C0.907255 94.5665 1.97549 96.1097 3.33361 97.4157C3.33361 97.4157 5.8458 99.9421 5.90853 100.002C8.13255 102.258 11.068 103.706 14.1741 104.078C14.3816 104.103 14.5878 104.123 14.7943 104.139C15.1503 104.165 15.5033 104.178 15.8549 104.178C22.8682 104.178 28.8422 98.9298 29.6874 91.816C30.2148 87.3782 28.7154 83.1046 25.5734 80.0898L23.0026 77.5069ZM151.534 99.8704H145.064C144.994 88.5775 141.747 82.1608 139.692 80.7599L139.598 80.6955L139.461 80.6959L132.929 80.6903V100.064H126.459V57.2117H138.486L138.609 57.2113C145.013 57.2785 150.202 62.5329 150.202 68.9822C150.202 72.2137 148.723 75.5201 146.245 77.8269L146.005 78.0507L146.196 78.318C149.543 83.0107 151.482 90.8501 151.534 99.8704ZM153.83 71.8276C153.83 68.4066 152.479 65.2045 150.034 62.8207C149.947 62.73 149.858 62.641 149.776 62.5617C149.689 62.4713 149.601 62.3823 149.519 62.303C149.432 62.2126 149.343 62.1236 149.262 62.0446C149.174 61.9539 149.085 61.8645 149.004 61.7859C148.917 61.6952 148.828 61.6062 148.746 61.5272C148.659 61.4365 148.57 61.3475 148.489 61.2681C148.401 61.1778 148.313 61.0884 148.232 61.0105C148.145 60.9194 148.056 60.8297 147.974 60.7514C147.887 60.661 147.798 60.5717 147.717 60.4927C147.63 60.4023 147.541 60.313 147.459 60.2337C145.078 57.7685 141.891 56.4106 138.485 56.4106L125.663 56.4116V100.864L128.495 103.709H136.557V84.3361H140.882C141.172 84.3361 141.435 84.5061 141.554 84.7721C142.564 87.0312 144.269 92.0602 144.269 100.244V100.67L147.101 103.516H155.163V103.089C155.163 93.94 153.244 85.9222 149.887 81.0017C152.362 78.5608 153.83 75.1589 153.83 71.8276ZM142.835 68.0495C142.902 68.3574 142.936 68.6694 142.936 68.9822C142.936 71.3434 140.696 73.3386 139.524 73.3905H136.557V67.3572H141.318L141.394 67.3569C141.681 67.3621 141.967 67.396 142.249 67.458C142.541 67.5224 142.771 67.7562 142.835 68.0495ZM138.486 63.7108L132.929 63.7118V74.1905H139.131V74.1978L139.509 74.1916C140.352 74.177 141.406 73.5671 142.259 72.5999C142.809 71.9765 143.732 70.6774 143.732 68.9822C143.732 66.0755 141.379 63.7108 138.486 63.7108Z" fill="white"/>
</svg>
